<?xml version="1.0" encoding="UTF-8"?>
<!DOCTYPE svg  PUBLIC '-//W3C//DTD SVG 20010904//EN'  'http://www.w3.org/TR/2001/REC-SVG-20010904/DTD/svg10.dtd'>
<svg width="130pt" height="137pt" version="1.0" viewBox="0 0 130 137" xmlns="http://www.w3.org/2000/svg">
<g transform="translate(0 137) scale(.1 -.1)">
<path style="fill:currentcolor" d="m764 1262c-6-4-44-72-84-152-41-80-94-179-119-222-45-76-47-77-111-98-204-67-350-215-350-356 0-83 71-110 147-55 53 38 189 202 256 307 22 36 32 42 79 52 29 5 54 9 55 8s-10-56-24-123c-14-68-23-129-19-138 6-16 51-21 60-6 3 5 17 62 31 127 33 155 33 154 56 154 15 0 18-5 14-22-3-13-16-77-30-143s-28-131-30-143c-5-22-10-23-57-20-40 2-53-1-62-14-18-29 4-53 53-56 23-2 41-8 41-15s-10-58-22-115c-20-97-20-104-5-120 37-36 60 15 103 225 3 17 14 24 42 28 201 32 340 105 399 209 7 11 12 43 13 70 0 46-3 53-48 96-52 50-111 74-227 91l-71 11 4 36c3 26 0 39-13 48-27 20-52 1-60-46-5-30-11-40-26-40-10 0-19 6-19 13 0 6 18 95 39 196 29 133 37 190 30 203-10 19-26 23-45 10zm-77-294c-3-13-10-48-17-79-11-55-12-57-46-61-19-2-33-2-32 1 12 24 94 161 97 161 2 0 1-10-2-22zm313-240c68-23 100-52 100-91 0-64-71-131-178-168-66-23-152-35-152-22 0 11 59 283 65 301 6 16 88 7 165-20zm-566-40c-47-80-220-268-245-268-17 0-21 29-9 64 19 58 92 129 177 174 89 47 87 46 77 30z"/>
</g>
</svg>
